<svg width="14" height="15" viewBox="0 0 14 15" fill="none" xmlns="http://www.w3.org/2000/svg">
<g id="Icon" clip-path="url(#clip0_1_802)">
<path id="Vector" d="M13.13 5.72461C13.13 5.83919 13.0623 5.96419 12.9269 6.09961L10.0909 8.86523L10.7628 12.7715C10.768 12.8079 10.7706 12.86 10.7706 12.9277C10.7706 13.0371 10.7433 13.1296 10.6886 13.2051C10.6339 13.2806 10.5545 13.3184 10.4503 13.3184C10.3514 13.3184 10.2472 13.2871 10.1378 13.2246L6.63 11.3809L3.12219 13.2246C3.00761 13.2871 2.90344 13.3184 2.80969 13.3184C2.70032 13.3184 2.61829 13.2806 2.5636 13.2051C2.50891 13.1296 2.48157 13.0371 2.48157 12.9277C2.48157 12.8965 2.48678 12.8444 2.49719 12.7715L3.16907 8.86523L0.325317 6.09961C0.195109 5.95898 0.130005 5.83398 0.130005 5.72461C0.130005 5.5319 0.275838 5.41211 0.567505 5.36523L4.48938 4.79492L6.24719 1.24023C6.34615 1.02669 6.47375 0.919922 6.63 0.919922C6.78625 0.919922 6.91386 1.02669 7.01282 1.24023L8.77063 4.79492L12.6925 5.36523C12.9842 5.41211 13.13 5.5319 13.13 5.72461Z" fill="#FFC109"/>
</g>
<defs>
<clipPath id="clip0_1_802">
<rect width="13" height="14" fill="white" transform="matrix(1 0 0 -1 0.130005 14.6699)"/>
</clipPath>
</defs>
</svg>
